<svg width="33" height="32" viewBox="0 0 33 32" fill="none" xmlns="http://www.w3.org/2000/svg">
<circle cx="16.3489" cy="16" r="16" fill="#FAFBFF"/>
<path d="M11.7919 9.3501C12.4309 9.3501 13.0219 9.4001 13.5619 9.5481C14.1029 9.6471 14.5459 9.8451 14.9389 10.0921C15.3329 10.3401 15.6279 10.6861 15.8239 11.1311C16.0209 11.5761 16.1199 12.1211 16.1199 12.7141C16.1199 13.4071 15.9719 14.0001 15.6279 14.4451C15.3329 14.8911 14.8409 15.2861 14.2509 15.5831C15.0869 15.8311 15.7259 16.2761 16.1199 16.8701C16.5129 17.4631 16.7589 18.2051 16.7589 19.0461C16.7589 19.7391 16.6109 20.3321 16.3649 20.8271C16.1199 21.3221 15.7259 21.7671 15.2829 22.0641C14.8016 22.3824 14.2697 22.6164 13.7099 22.7561C13.1199 22.9051 12.5299 23.0041 11.9399 23.0041H5.34888V9.3501H11.7919ZM11.3979 14.8901C11.9389 14.8901 12.3819 14.7421 12.7259 14.4951C13.0699 14.2481 13.2179 13.8021 13.2179 13.2581C13.2179 12.9611 13.1679 12.6651 13.0699 12.4671C12.9719 12.2691 12.8239 12.1201 12.6279 11.9721C12.4309 11.8731 12.2339 11.7741 11.9879 11.7251C11.7419 11.6751 11.4969 11.6751 11.2009 11.6751H8.34888V14.8911H11.3989L11.3979 14.8901ZM11.5459 20.7281C11.8409 20.7281 12.1359 20.6781 12.3819 20.6291C12.6279 20.5791 12.8739 20.4811 13.0699 20.3321C13.2703 20.1873 13.4379 20.002 13.5619 19.7881C13.6599 19.5411 13.7589 19.2441 13.7589 18.8981C13.7589 18.2051 13.5619 17.7101 13.1689 17.3641C12.7749 17.0671 12.2339 16.9191 11.5949 16.9191H8.34888V20.7291L11.5459 20.7281ZM21.0379 20.6781C21.4309 21.0741 22.0209 21.2721 22.8079 21.2721C23.3489 21.2721 23.8409 21.1241 24.2339 20.8771C24.6279 20.5801 24.8739 20.2831 24.9719 19.9871H27.3819C26.9879 21.1731 26.3979 22.0141 25.6119 22.5591C24.8239 23.0531 23.8899 23.3501 22.7589 23.3501C22.0352 23.3523 21.3177 23.218 20.6439 22.9541C20.0375 22.7267 19.4968 22.353 19.0699 21.8661C18.6132 21.4107 18.2756 20.8498 18.0869 20.2331C17.8409 19.5901 17.7419 18.8981 17.7419 18.1061C17.7419 17.3641 17.8409 16.6721 18.0869 16.0281C18.3238 15.4085 18.6741 14.8384 19.1199 14.3471C19.569 13.8859 20.1032 13.5161 20.6929 13.2581C21.3496 12.9942 22.0511 12.8597 22.7589 12.8621C23.5949 12.8621 24.3329 13.0111 24.9719 13.3571C25.6119 13.7031 26.1029 14.0991 26.4959 14.6931C26.8899 15.2371 27.1859 15.8801 27.3819 16.5731C27.4799 17.2651 27.5289 17.9581 27.4799 18.7491H20.3489C20.3489 19.5411 20.6439 20.2831 21.0379 20.6791V20.6781ZM24.1359 15.4841C23.7919 15.1381 23.2509 14.9401 22.6109 14.9401C22.1689 14.9401 21.8239 15.0401 21.5289 15.1881C21.2339 15.3361 21.0379 15.5341 20.8409 15.7321C20.6595 15.9233 20.5394 16.1642 20.4959 16.4241C20.4469 16.6721 20.3979 16.8701 20.3979 17.0671H24.8239C24.7259 16.3251 24.4799 15.8311 24.1359 15.4841ZM19.8079 10.2901H25.3159V11.6261H19.8089V10.2901H19.8079Z" fill="url(#paint0_linear_659_610)"/>
<defs>
<linearGradient id="paint0_linear_659_610" x1="5.42353" y1="18.5584" x2="25.6706" y2="4.32422" gradientUnits="userSpaceOnUse">
<stop stop-color="#0930AE"/>
<stop offset="1" stop-color="#2D5FFF"/>
</linearGradient>
</defs>
</svg>
