<svg width="33" height="32" viewBox="0 0 33 32" fill="none" xmlns="http://www.w3.org/2000/svg">
<circle cx="16.3489" cy="16" r="16" fill="#FAFBFF"/>
<path d="M26.3489 16C26.3489 10.48 21.8689 6 16.3489 6C10.8289 6 6.34888 10.48 6.34888 16C6.34888 20.84 9.78888 24.87 14.3489 25.8V19H12.3489V16H14.3489V13.5C14.3489 11.57 15.9189 10 17.8489 10H20.3489V13H18.3489C17.7989 13 17.3489 13.45 17.3489 14V16H20.3489V19H17.3489V25.95C22.3989 25.45 26.3489 21.19 26.3489 16Z" fill="url(#paint0_linear_659_622)"/>
<defs>
<linearGradient id="paint0_linear_659_622" x1="6.41629" y1="19.1218" x2="29.2103" y2="8.96798" gradientUnits="userSpaceOnUse">
<stop stop-color="#0930AE"/>
<stop offset="1" stop-color="#2D5FFF"/>
</linearGradient>
</defs>
</svg>
