<svg width="20" height="20" viewBox="0 0 20 20" fill="none" xmlns="http://www.w3.org/2000/svg">
<g clip-path="url(#clip0_349_255)">
<path d="M9.99967 16.0416C6.66634 16.0416 3.95801 13.3333 3.95801 9.99992C3.95801 6.66658 6.66634 3.95825 9.99967 3.95825C13.333 3.95825 16.0413 6.66658 16.0413 9.99992C16.0413 13.3333 13.333 16.0416 9.99967 16.0416ZM9.99967 5.20825C7.35801 5.20825 5.20801 7.35825 5.20801 9.99992C5.20801 12.6416 7.35801 14.7916 9.99967 14.7916C12.6413 14.7916 14.7913 12.6416 14.7913 9.99992C14.7913 7.35825 12.6413 5.20825 9.99967 5.20825ZM9.99967 19.1332C9.54134 19.1332 9.16634 18.7916 9.16634 18.3333V18.2666C9.16634 17.8083 9.54134 17.4333 9.99967 17.4333C10.458 17.4333 10.833 17.8083 10.833 18.2666C10.833 18.7249 10.458 19.1332 9.99967 19.1332ZM15.9497 16.7832C15.733 16.7832 15.5247 16.6999 15.358 16.5416L15.2497 16.4332C15.1725 16.3561 15.1113 16.2645 15.0696 16.1637C15.0278 16.0629 15.0063 15.9549 15.0063 15.8458C15.0063 15.7366 15.0278 15.6286 15.0696 15.5278C15.1113 15.427 15.1725 15.3354 15.2497 15.2583C15.3268 15.1811 15.4184 15.1199 15.5192 15.0781C15.62 15.0364 15.7281 15.0149 15.8372 15.0149C15.9463 15.0149 16.0543 15.0364 16.1551 15.0781C16.2559 15.1199 16.3475 15.1811 16.4247 15.2583L16.533 15.3666C16.6488 15.4825 16.7277 15.63 16.7598 15.7906C16.7919 15.9513 16.7757 16.1178 16.7134 16.2693C16.651 16.4208 16.5452 16.5504 16.4093 16.6418C16.2734 16.7333 16.1135 16.7825 15.9497 16.7832ZM4.04967 16.7832C3.83301 16.7832 3.62467 16.6999 3.45801 16.5416C3.38075 16.4645 3.31947 16.3729 3.27765 16.2721C3.23583 16.1713 3.2143 16.0632 3.2143 15.9541C3.2143 15.8449 3.23583 15.7369 3.27765 15.6361C3.31947 15.5353 3.38075 15.4437 3.45801 15.3666L3.56634 15.2583C3.64349 15.1811 3.73508 15.1199 3.83589 15.0781C3.93669 15.0364 4.04473 15.0149 4.15384 15.0149C4.26295 15.0149 4.37099 15.0364 4.47179 15.0781C4.5726 15.1199 4.66419 15.1811 4.74134 15.2583C4.81849 15.3354 4.87969 15.427 4.92145 15.5278C4.9632 15.6286 4.98469 15.7366 4.98469 15.8458C4.98469 15.9549 4.9632 16.0629 4.92145 16.1637C4.87969 16.2645 4.81849 16.3561 4.74134 16.4332L4.63301 16.5416C4.47467 16.6999 4.25801 16.7832 4.04967 16.7832ZM18.333 10.8333H18.2663C17.808 10.8333 17.433 10.4583 17.433 9.99992C17.433 9.54158 17.808 9.16658 18.2663 9.16658C18.7247 9.16658 19.133 9.54158 19.133 9.99992C19.133 10.4583 18.7913 10.8333 18.333 10.8333ZM1.73301 10.8333H1.66634C1.20801 10.8333 0.833008 10.4583 0.833008 9.99992C0.833008 9.54158 1.20801 9.16658 1.66634 9.16658C2.12467 9.16658 2.53301 9.54158 2.53301 9.99992C2.53301 10.4583 2.19134 10.8333 1.73301 10.8333ZM15.8413 4.99158C15.6247 4.99158 15.4163 4.90825 15.2497 4.74992C15.1724 4.67282 15.1111 4.58125 15.0693 4.48044C15.0275 4.37963 15.006 4.27156 15.006 4.16242C15.006 4.05328 15.0275 3.94521 15.0693 3.8444C15.1111 3.74359 15.1724 3.65201 15.2497 3.57492L15.358 3.46658C15.4352 3.38943 15.5267 3.32823 15.6276 3.28648C15.7284 3.24473 15.8364 3.22323 15.9455 3.22323C16.0546 3.22323 16.1627 3.24473 16.2635 3.28648C16.3643 3.32823 16.4559 3.38943 16.533 3.46658C16.6102 3.54374 16.6714 3.63533 16.7131 3.73613C16.7549 3.83694 16.7764 3.94498 16.7764 4.05408C16.7764 4.16319 16.7549 4.27123 16.7131 4.37204C16.6714 4.47284 16.6102 4.56443 16.533 4.64159L16.4247 4.74992C16.2663 4.90825 16.058 4.99158 15.8413 4.99158ZM4.15801 4.99158C3.94134 4.99158 3.73301 4.90825 3.56634 4.74992L3.45801 4.63325C3.38086 4.5561 3.31966 4.46451 3.2779 4.3637C3.23615 4.2629 3.21466 4.15486 3.21466 4.04575C3.21466 3.93664 3.23615 3.8286 3.2779 3.7278C3.31966 3.627 3.38086 3.5354 3.45801 3.45825C3.53516 3.3811 3.62675 3.3199 3.72755 3.27815C3.82836 3.23639 3.9364 3.2149 4.04551 3.2149C4.15462 3.2149 4.26266 3.23639 4.36346 3.27815C4.46426 3.3199 4.55586 3.3811 4.63301 3.45825L4.74134 3.56659C5.06634 3.89159 5.06634 4.41659 4.74134 4.74158C4.58301 4.90825 4.36634 4.99158 4.15801 4.99158ZM9.99967 2.53325C9.54134 2.53325 9.16634 2.19159 9.16634 1.73325V1.66659C9.16634 1.20825 9.54134 0.833252 9.99967 0.833252C10.458 0.833252 10.833 1.20825 10.833 1.66659C10.833 2.12492 10.458 2.53325 9.99967 2.53325Z" fill="white"/>
</g>
<defs>
<clipPath id="clip0_349_255">
<rect width="20" height="20" fill="white"/>
</clipPath>
</defs>
</svg>
