<svg width="20" height="20" viewBox="0 0 20 20" fill="none" xmlns="http://www.w3.org/2000/svg">
<path d="M10.3824 18.9567C10.2407 18.9567 10.0991 18.9567 9.9574 18.9484C5.29073 18.7401 1.39073 14.9817 1.06573 10.3984C0.782395 6.46505 3.0574 2.79005 6.72406 1.24839C7.76573 0.815053 8.31573 1.14839 8.54906 1.39005C8.7824 1.62339 9.1074 2.16505 8.67406 3.15672C8.29106 4.0371 8.09797 4.98835 8.1074 5.94839C8.12406 9.64005 11.1907 12.7734 14.9324 12.9234C15.4741 12.9484 16.0074 12.9067 16.5241 12.8151C17.6241 12.6151 18.0824 13.0567 18.2574 13.3401C18.4324 13.6234 18.6324 14.2317 17.9657 15.1317C16.1991 17.5484 13.3907 18.9567 10.3824 18.9567ZM2.3074 10.3067C2.59073 14.2734 5.97406 17.5234 10.0074 17.6984C12.7491 17.8317 15.3491 16.5817 16.9491 14.3984C17.0741 14.2234 17.1324 14.0984 17.1574 14.0317C17.0824 14.0234 16.9491 14.0151 16.7407 14.0567C16.1324 14.1651 15.4991 14.2067 14.8741 14.1817C10.4741 14.0067 6.87406 10.3151 6.84906 5.96505C6.84906 4.81505 7.07406 3.70672 7.5324 2.66505C7.61573 2.48172 7.6324 2.35672 7.64073 2.29005C7.56573 2.29005 7.4324 2.30672 7.21573 2.39839C4.04073 3.73172 2.07406 6.91505 2.3074 10.3067Z" fill="white"/>
</svg>
