<svg width="33" height="32" viewBox="0 0 33 32" fill="none" xmlns="http://www.w3.org/2000/svg">
<circle cx="16.3489" cy="16" r="16" fill="#FAFBFF"/>
<path d="M17.3768 6.00123C18.1066 5.99843 18.8363 6.00576 19.5658 6.02323L19.7598 6.03023C19.9838 6.03823 20.2048 6.04823 20.4718 6.06023C21.5358 6.11023 22.2618 6.27823 22.8988 6.52523C23.5588 6.77923 24.1148 7.12323 24.6708 7.67923C25.1792 8.17884 25.5727 8.78318 25.8238 9.45023C26.0708 10.0872 26.2388 10.8142 26.2888 11.8782C26.3008 12.1442 26.3108 12.3662 26.3188 12.5902L26.3248 12.7842C26.3426 13.5134 26.3503 14.2428 26.3478 14.9722L26.3488 15.7182V17.0282C26.3513 17.758 26.3436 18.4877 26.3258 19.2172L26.3198 19.4112C26.3118 19.6352 26.3018 19.8562 26.2898 20.1232C26.2398 21.1872 26.0698 21.9132 25.8238 22.5502C25.5735 23.218 25.1799 23.8228 24.6708 24.3222C24.1708 24.8306 23.5662 25.224 22.8988 25.4752C22.2618 25.7222 21.5358 25.8902 20.4718 25.9402C20.2048 25.9522 19.9838 25.9622 19.7598 25.9702L19.5658 25.9762C18.8363 25.994 18.1066 26.0017 17.3768 25.9992L16.6308 26.0002H15.3218C14.5921 26.0027 13.8624 25.995 13.1328 25.9772L12.9388 25.9712C12.7015 25.9626 12.4641 25.9526 12.2268 25.9412C11.1628 25.8912 10.4368 25.7212 9.79884 25.4752C9.13153 25.2246 8.52708 24.8311 8.02784 24.3222C7.51889 23.8225 7.12507 23.2178 6.87384 22.5502C6.62684 21.9132 6.45884 21.1872 6.40884 20.1232C6.39771 19.8859 6.38771 19.6486 6.37884 19.4112L6.37384 19.2172C6.35541 18.4877 6.34707 17.758 6.34884 17.0282V14.9722C6.34605 14.2428 6.35339 13.5134 6.37084 12.7842L6.37784 12.5902C6.38584 12.3662 6.39584 12.1442 6.40784 11.8782C6.45784 10.8132 6.62584 10.0882 6.87284 9.45023C7.12422 8.78285 7.51881 8.17868 8.02884 7.68023C8.52774 7.17098 9.1318 6.7768 9.79884 6.52523C10.4368 6.27823 11.1618 6.11023 12.2268 6.06023L12.9388 6.03023L13.1328 6.02523C13.862 6.0068 14.5914 5.99847 15.3208 6.00023L17.3768 6.00123ZM16.3488 11.0012C15.6864 10.9919 15.0286 11.1143 14.4138 11.3613C13.799 11.6083 13.2395 11.9751 12.7677 12.4403C12.2959 12.9055 11.9212 13.4598 11.6655 14.071C11.4098 14.6822 11.2781 15.3382 11.2781 16.0007C11.2781 16.6633 11.4098 17.3192 11.6655 17.9305C11.9212 18.5417 12.2959 19.096 12.7677 19.5612C13.2395 20.0264 13.799 20.3931 14.4138 20.6402C15.0286 20.8872 15.6864 21.0096 16.3488 21.0002C17.6749 21.0002 18.9467 20.4734 19.8844 19.5358C20.8221 18.5981 21.3488 17.3263 21.3488 16.0002C21.3488 14.6741 20.8221 13.4024 19.8844 12.4647C18.9467 11.527 17.6749 11.0012 16.3488 11.0012ZM16.3488 13.0012C16.7474 12.9939 17.1433 13.066 17.5136 13.2134C17.884 13.3608 18.2212 13.5806 18.5056 13.8598C18.7901 14.139 19.016 14.4721 19.1703 14.8396C19.3246 15.2071 19.404 15.6016 19.4041 16.0002C19.4042 16.3988 19.3248 16.7934 19.1707 17.1609C19.0165 17.5285 18.7907 17.8617 18.5063 18.141C18.222 18.4203 17.8848 18.6401 17.5146 18.7876C17.1443 18.9352 16.7484 19.0074 16.3498 19.0002C15.5542 19.0002 14.7911 18.6842 14.2285 18.1216C13.6659 17.5589 13.3498 16.7959 13.3498 16.0002C13.3498 15.2046 13.6659 14.4415 14.2285 13.8789C14.7911 13.3163 15.5542 13.0002 16.3498 13.0002L16.3488 13.0012ZM21.5988 9.50123C21.2762 9.51414 20.9711 9.65138 20.7474 9.8842C20.5238 10.117 20.3988 10.4274 20.3988 10.7502C20.3988 11.0731 20.5238 11.3834 20.7474 11.6163C20.9711 11.8491 21.2762 11.9863 21.5988 11.9992C21.9304 11.9992 22.2483 11.8675 22.4827 11.6331C22.7171 11.3987 22.8488 11.0808 22.8488 10.7492C22.8488 10.4177 22.7171 10.0998 22.4827 9.86535C22.2483 9.63093 21.9304 9.49923 21.5988 9.49923V9.50123Z" fill="url(#paint0_linear_659_602)"/>
<defs>
<linearGradient id="paint0_linear_659_602" x1="6.41568" y1="19.1551" x2="29.2296" y2="9.01768" gradientUnits="userSpaceOnUse">
<stop stop-color="#0930AE"/>
<stop offset="1" stop-color="#2D5FFF"/>
</linearGradient>
</defs>
</svg>
