<svg width="33" height="32" viewBox="0 0 33 32" fill="none" xmlns="http://www.w3.org/2000/svg">
<circle cx="16.3489" cy="16" r="16" fill="#FAFBFF"/>
<g clip-path="url(#clip0_686_2128)">
<path d="M24.0155 7.20801C24.6344 7.20801 25.2279 7.41872 25.6655 7.79379C26.103 8.16887 26.3489 8.67757 26.3489 9.20801V23.208C26.3489 23.7384 26.103 24.2471 25.6655 24.6222C25.2279 24.9973 24.6344 25.208 24.0155 25.208H7.68221C7.06337 25.208 6.46988 24.9973 6.03229 24.6222C5.59471 24.2471 5.34888 23.7384 5.34888 23.208V9.20801C5.34888 8.67757 5.59471 8.16887 6.03229 7.79379C6.46988 7.41872 7.06337 7.20801 7.68221 7.20801H24.0155ZM23.4322 22.708V17.408C23.4322 16.5434 23.0315 15.7142 22.3182 15.1028C21.605 14.4915 20.6376 14.148 19.6289 14.148C18.6372 14.148 17.4822 14.668 16.9222 15.448V14.338H13.6672V22.708H16.9222V17.778C16.9222 17.008 17.6455 16.378 18.5439 16.378C18.9771 16.378 19.3925 16.5255 19.6988 16.7881C20.0051 17.0506 20.1772 17.4067 20.1772 17.778V22.708H23.4322ZM9.87554 12.768C10.3954 12.768 10.8939 12.591 11.2615 12.2759C11.629 11.9609 11.8355 11.5336 11.8355 11.088C11.8355 10.158 10.9605 9.39801 9.87554 9.39801C9.35263 9.39801 8.85112 9.57606 8.48136 9.893C8.11161 10.2099 7.90388 10.6398 7.90388 11.088C7.90388 12.018 8.79054 12.768 9.87554 12.768ZM11.4972 22.708V14.338H8.26554V22.708H11.4972Z" fill="url(#paint0_linear_686_2128)"/>
</g>
<defs>
<linearGradient id="paint0_linear_686_2128" x1="5.41966" y1="19.0472" x2="28.0271" y2="7.32745" gradientUnits="userSpaceOnUse">
<stop stop-color="#0930AE"/>
<stop offset="1" stop-color="#2D5FFF"/>
</linearGradient>
<clipPath id="clip0_686_2128">
<rect width="24" height="24" fill="white" transform="translate(2.34888 4.20801)"/>
</clipPath>
</defs>
</svg>
