<svg width="148" height="65" viewBox="0 0 148 65" fill="none" xmlns="http://www.w3.org/2000/svg">
<g filter="url(#filter0_d_674_860)">
<path d="M53.7396 49.1143L30.8394 59.626V47.4487L48.0703 39.0366L57.3681 43.4561C57.3681 45.8891 55.9508 48.0993 53.7396 49.1143Z" fill="white"/>
</g>
<g filter="url(#filter1_d_674_860)">
<path d="M30.8521 30.9565L57.5403 44.0105L57.4997 40.6487C57.426 34.5407 53.8208 29.0284 48.2544 26.5127L30.7028 18.5804L30.8521 30.9565Z" fill="white"/>
</g>
<g filter="url(#filter2_d_674_860)">
<path d="M7.75513 14.7874L30.5268 4.00018L30.6737 16.1766L13.4202 24.9694L4.1951 20.4889C4.16574 18.0561 5.55631 15.829 7.75513 14.7874Z" fill="white"/>
</g>
<g filter="url(#filter3_d_674_860)">
<path d="M30.8813 33.3862L4.19317 20.3321L4.23373 23.694C4.30742 29.802 7.91261 35.3143 13.479 37.83L31.0306 45.7623L30.8813 33.3862Z" fill="white"/>
</g>
<path d="M71.1186 27.8793C69.7551 27.8793 68.4891 27.5466 67.3205 26.8811C66.168 26.1994 65.251 25.2823 64.5693 24.1299C63.9038 22.9613 63.571 21.6952 63.571 20.3318C63.571 18.9684 63.9038 17.7105 64.5693 16.5581C65.251 15.4056 66.168 14.4967 67.3205 13.8312C68.4891 13.1495 69.7551 12.8087 71.1186 12.8087C72.4982 12.8087 73.7642 13.1495 74.9167 13.8312C76.0853 14.4967 76.9943 15.4056 77.6435 16.5581L75.4279 17.8971C74.9735 17.1343 74.3648 16.5418 73.6019 16.1198C72.8553 15.6816 72.0437 15.4625 71.1673 15.4625C70.2908 15.4625 69.4792 15.6816 68.7326 16.1198C67.9859 16.5418 67.3935 17.1262 66.9552 17.8728C66.5332 18.6032 66.3222 19.4066 66.3222 20.2831C66.3222 21.1758 66.5414 21.9955 66.9796 22.7422C67.4178 23.4888 68.0022 24.0893 68.7326 24.5438C69.4792 24.9821 70.2908 25.2012 71.1673 25.2012C72.0437 25.2012 72.8553 24.9902 73.6019 24.5682C74.3648 24.1462 74.9572 23.5699 75.3793 22.8395L77.6435 24.1299C76.9618 25.2986 76.0447 26.2156 74.8923 26.8811C73.7561 27.5466 72.4982 27.8793 71.1186 27.8793ZM87.7143 27.8793C86.3509 27.8793 85.0849 27.5466 83.9162 26.8811C82.7638 26.1994 81.8468 25.2823 81.165 24.1299C80.4996 22.9613 80.1668 21.6952 80.1668 20.3318C80.1668 18.9684 80.4996 17.7105 81.165 16.5581C81.8468 15.3894 82.7638 14.4724 83.9162 13.8069C85.0849 13.1252 86.3509 12.7843 87.7143 12.7843C89.0778 12.7843 90.3357 13.1252 91.4881 13.8069C92.6568 14.4886 93.5819 15.4056 94.2636 16.5581C94.9454 17.7105 95.2862 18.9684 95.2862 20.3318C95.2862 21.6952 94.9454 22.9613 94.2636 24.1299C93.5819 25.2823 92.6649 26.1994 91.5125 26.8811C90.36 27.5466 89.094 27.8793 87.7143 27.8793ZM87.7143 24.9577C88.5584 24.9577 89.3294 24.7548 90.0273 24.349C90.7415 23.927 91.3096 23.3671 91.7316 22.6691C92.1536 21.9549 92.3646 21.1758 92.3646 20.3318C92.3646 19.504 92.1536 18.733 91.7316 18.0189C91.3096 17.3047 90.7415 16.7447 90.0273 16.3389C89.3294 15.9169 88.5584 15.7059 87.7143 15.7059C86.8703 15.7059 86.0912 15.9169 85.3771 16.3389C84.6791 16.7447 84.1191 17.3047 83.6971 18.0189C83.2913 18.7168 83.0884 19.4878 83.0884 20.3318C83.0884 21.1758 83.2913 21.9549 83.6971 22.6691C84.1191 23.3671 84.6791 23.927 85.3771 24.349C86.0912 24.7548 86.8703 24.9577 87.7143 24.9577ZM108.981 8.18275H111.903V23.1804C111.903 23.6024 111.854 23.9676 111.757 24.276C111.675 24.5844 111.513 24.8766 111.27 25.1525C110.539 25.9965 109.671 26.662 108.665 27.1489C107.658 27.6359 106.595 27.8793 105.475 27.8793C104.128 27.8793 102.87 27.5385 101.701 26.8568C100.549 26.1751 99.6319 25.258 98.9502 24.1056C98.2685 22.9369 97.9277 21.679 97.9277 20.3318C97.9277 18.9846 98.2685 17.7348 98.9502 16.5824C99.6319 15.4138 100.549 14.4886 101.701 13.8069C102.87 13.1252 104.128 12.7843 105.475 12.7843C106.725 12.7843 107.894 13.0765 108.981 13.6608V8.18275ZM108.786 23.5456C108.916 23.3995 108.981 23.2129 108.981 22.9856V17.3372C108.527 16.8178 107.991 16.4201 107.374 16.1442C106.774 15.852 106.141 15.7059 105.475 15.7059C104.647 15.7059 103.876 15.9169 103.162 16.3389C102.464 16.761 101.904 17.329 101.482 18.0432C101.06 18.7412 100.849 19.504 100.849 20.3318C100.849 21.1596 101.06 21.9306 101.482 22.6448C101.904 23.3427 102.464 23.9027 103.162 24.3247C103.876 24.7467 104.647 24.9577 105.475 24.9577C106.141 24.9577 106.757 24.836 107.326 24.5925C107.91 24.3328 108.397 23.9838 108.786 23.5456ZM130.379 20.3562C130.379 20.7133 130.249 21.0216 129.989 21.2813C129.746 21.541 129.437 21.6709 129.064 21.6709L118.327 21.6222C118.619 22.5961 119.187 23.4158 120.031 24.0812C120.875 24.7305 121.809 25.0551 122.831 25.0551C123.562 25.0551 124.26 24.8928 124.925 24.5682C125.591 24.2273 126.142 23.7647 126.581 23.1804L129.405 24.0812C128.707 25.2499 127.782 26.1751 126.629 26.8568C125.477 27.5385 124.219 27.8793 122.856 27.8793C121.492 27.8793 120.226 27.5466 119.057 26.8811C117.905 26.1994 116.988 25.2823 116.306 24.1299C115.641 22.9613 115.308 21.6952 115.308 20.3318C115.308 18.9684 115.641 17.7105 116.306 16.5581C116.988 15.4056 117.905 14.4967 119.057 13.8312C120.226 13.1495 121.492 12.8087 122.856 12.8087C124.219 12.8087 125.477 13.1495 126.629 13.8312C127.782 14.4967 128.691 15.4138 129.356 16.5824C130.038 17.7348 130.379 18.9927 130.379 20.3562ZM122.856 15.6329C121.768 15.6329 120.786 15.9819 119.91 16.6798C119.049 17.3777 118.497 18.2461 118.254 19.2849L127.433 19.3336C127.189 18.2786 126.637 17.4021 125.777 16.7041C124.917 15.99 123.943 15.6329 122.856 15.6329ZM133.492 27.6602V24.7386H141.137C141.559 24.7386 141.908 24.5925 142.184 24.3004C142.476 24.0082 142.623 23.6511 142.623 23.2291C142.623 22.8233 142.476 22.4825 142.184 22.2065C141.892 21.9144 141.543 21.7683 141.137 21.7683H137.51C136.714 21.7683 135.984 21.5735 135.318 21.184C134.653 20.7782 134.125 20.2425 133.736 19.5771C133.346 18.9116 133.152 18.1812 133.152 17.3859C133.152 16.5905 133.346 15.8601 133.736 15.1946C134.125 14.5292 134.653 14.0016 135.318 13.6121C135.984 13.2225 136.714 13.0278 137.51 13.0278H144.449V15.9494H137.51C137.104 15.9494 136.763 16.0874 136.487 16.3633C136.211 16.6392 136.073 16.9801 136.073 17.3859C136.073 17.7916 136.211 18.1406 136.487 18.4328C136.763 18.7087 137.104 18.8467 137.51 18.8467H141.137C141.949 18.8467 142.687 19.0496 143.353 19.4553C144.035 19.8449 144.57 20.3724 144.96 21.0379C145.349 21.7034 145.544 22.4338 145.544 23.2291C145.544 24.0407 145.341 24.7873 144.935 25.469C144.546 26.1345 144.01 26.6701 143.329 27.0759C142.663 27.4654 141.933 27.6602 141.137 27.6602H133.492Z" fill="white"/>
<path d="M74.9239 33.5625H77.8456V48.5602C77.8456 48.9822 77.7969 49.3474 77.6995 49.6558C77.6183 49.9642 77.456 50.2563 77.2125 50.5323C76.4821 51.3763 75.6138 52.0418 74.6074 52.5287C73.6011 53.0156 72.5379 53.2591 71.418 53.2591C70.0708 53.2591 68.8129 52.9182 67.6442 52.2365C66.4918 51.5548 65.5748 50.6378 64.893 49.4853C64.2113 48.3167 63.8705 47.0588 63.8705 45.7116C63.8705 44.3644 64.2113 43.1146 64.893 41.9622C65.5748 40.7935 66.4918 39.8683 67.6442 39.1866C68.8129 38.5049 70.0708 38.1641 71.418 38.1641C72.6678 38.1641 73.8364 38.4562 74.9239 39.0405V33.5625ZM74.7292 48.9254C74.859 48.7793 74.9239 48.5926 74.9239 48.3654V42.7169C74.4695 42.1975 73.9338 41.7999 73.317 41.5239C72.7165 41.2318 72.0835 41.0857 71.418 41.0857C70.5902 41.0857 69.8192 41.2967 69.105 41.7187C68.4071 42.1407 67.8471 42.7088 67.4251 43.423C67.0031 44.1209 66.7921 44.8838 66.7921 45.7116C66.7921 46.5394 67.0031 47.3104 67.4251 48.0245C67.8471 48.7225 68.4071 49.2825 69.105 49.7045C69.8192 50.1265 70.5902 50.3375 71.418 50.3375C72.0835 50.3375 72.7003 50.2157 73.2684 49.9723C73.8527 49.7126 74.3396 49.3636 74.7292 48.9254ZM96.3216 45.7359C96.3216 46.093 96.1917 46.4014 95.932 46.6611C95.6886 46.9208 95.3802 47.0507 95.0068 47.0507L84.2699 47.002C84.5621 47.9758 85.1301 48.7955 85.9742 49.461C86.8182 50.1102 87.7515 50.4349 88.7741 50.4349C89.5045 50.4349 90.2024 50.2726 90.8679 49.9479C91.5334 49.6071 92.0852 49.1445 92.5235 48.5602L95.3477 49.461C94.6498 50.6296 93.7246 51.5548 92.5722 52.2365C91.4197 52.9182 90.1618 53.2591 88.7984 53.2591C87.435 53.2591 86.1689 52.9264 85.0003 52.2609C83.8479 51.5792 82.9308 50.6621 82.2491 49.5097C81.5836 48.341 81.2509 47.075 81.2509 45.7116C81.2509 44.3482 81.5836 43.0902 82.2491 41.9378C82.9308 40.7854 83.8479 39.8765 85.0003 39.211C86.1689 38.5293 87.435 38.1884 88.7984 38.1884C90.1618 38.1884 91.4197 38.5293 92.5722 39.211C93.7246 39.8765 94.6335 40.7935 95.299 41.9622C95.9807 43.1146 96.3216 44.3725 96.3216 45.7359ZM88.7984 41.0126C87.7109 41.0126 86.7289 41.3616 85.8524 42.0596C84.9922 42.7575 84.4403 43.6259 84.1968 44.6647L93.3756 44.7134C93.1321 43.6583 92.5803 42.7818 91.72 42.0839C90.8598 41.3697 89.8859 41.0126 88.7984 41.0126ZM105.328 53.2591C104.712 53.2591 104.152 53.0806 103.648 52.7235C103.145 52.3502 102.78 51.8389 102.553 51.1896L98.073 38.4319H101.189L104.817 48.8767C104.85 48.9903 104.914 49.0796 105.012 49.1445C105.109 49.2094 105.215 49.2419 105.328 49.2419C105.442 49.2419 105.547 49.2094 105.645 49.1445C105.742 49.0796 105.807 48.9903 105.84 48.8767L109.467 38.4319H112.584L108.08 51.1896C107.852 51.8389 107.487 52.3502 106.984 52.7235C106.481 53.0806 105.929 53.2591 105.328 53.2591ZM115.841 53.04V50.1184H123.486C123.908 50.1184 124.257 49.9723 124.533 49.6801C124.825 49.388 124.971 49.0309 124.971 48.6089C124.971 48.2031 124.825 47.8622 124.533 47.5863C124.241 47.2941 123.892 47.148 123.486 47.148H119.858C119.063 47.148 118.332 46.9533 117.667 46.5637C117.001 46.1579 116.474 45.6223 116.084 44.9568C115.695 44.2913 115.5 43.5609 115.5 42.7656C115.5 41.9703 115.695 41.2399 116.084 40.5744C116.474 39.9089 117.001 39.3814 117.667 38.9919C118.332 38.6023 119.063 38.4075 119.858 38.4075H126.797V41.3292H119.858C119.452 41.3292 119.111 41.4671 118.836 41.743C118.56 42.019 118.422 42.3598 118.422 42.7656C118.422 43.1714 118.56 43.5204 118.836 43.8125C119.111 44.0885 119.452 44.2264 119.858 44.2264H123.486C124.297 44.2264 125.036 44.4293 125.701 44.8351C126.383 45.2246 126.919 45.7522 127.308 46.4176C127.698 47.0831 127.893 47.8135 127.893 48.6089C127.893 49.4204 127.69 50.1671 127.284 50.8488C126.894 51.5142 126.359 52.0499 125.677 52.4557C125.012 52.8452 124.281 53.04 123.486 53.04H115.841Z" fill="white"/>
<defs>
<filter id="filter0_d_674_860" x="27.072" y="35.8971" width="34.0635" height="28.1242" filterUnits="userSpaceOnUse" color-interpolation-filters="sRGB">
<feFlood flood-opacity="0" result="BackgroundImageFix"/>
<feColorMatrix in="SourceAlpha" type="matrix" values="0 0 0 0 0 0 0 0 0 0 0 0 0 0 0 0 0 0 127 0" result="hardAlpha"/>
<feOffset dy="0.6279"/>
<feGaussianBlur stdDeviation="1.8837"/>
<feComposite in2="hardAlpha" operator="out"/>
<feColorMatrix type="matrix" values="0 0 0 0 0 0 0 0 0 0 0 0 0 0 0 0 0 0 0.4 0"/>
<feBlend mode="normal" in2="BackgroundImageFix" result="effect1_dropShadow_674_860"/>
<feBlend mode="normal" in="SourceGraphic" in2="effect1_dropShadow_674_860" result="shape"/>
</filter>
<filter id="filter1_d_674_860" x="26.9354" y="15.4409" width="34.3723" height="32.9649" filterUnits="userSpaceOnUse" color-interpolation-filters="sRGB">
<feFlood flood-opacity="0" result="BackgroundImageFix"/>
<feColorMatrix in="SourceAlpha" type="matrix" values="0 0 0 0 0 0 0 0 0 0 0 0 0 0 0 0 0 0 127 0" result="hardAlpha"/>
<feOffset dy="0.6279"/>
<feGaussianBlur stdDeviation="1.8837"/>
<feComposite in2="hardAlpha" operator="out"/>
<feColorMatrix type="matrix" values="0 0 0 0 0 0 0 0 0 0 0 0 0 0 0 0 0 0 0.6 0"/>
<feBlend mode="normal" in2="BackgroundImageFix" result="effect1_dropShadow_674_860"/>
<feBlend mode="normal" in="SourceGraphic" in2="effect1_dropShadow_674_860" result="shape"/>
</filter>
<filter id="filter2_d_674_860" x="0.427241" y="0.860683" width="34.0139" height="28.5041" filterUnits="userSpaceOnUse" color-interpolation-filters="sRGB">
<feFlood flood-opacity="0" result="BackgroundImageFix"/>
<feColorMatrix in="SourceAlpha" type="matrix" values="0 0 0 0 0 0 0 0 0 0 0 0 0 0 0 0 0 0 127 0" result="hardAlpha"/>
<feOffset dy="0.6279"/>
<feGaussianBlur stdDeviation="1.8837"/>
<feComposite in2="hardAlpha" operator="out"/>
<feColorMatrix type="matrix" values="0 0 0 0 0 0 0 0 0 0 0 0 0 0 0 0 0 0 0.4 0"/>
<feBlend mode="normal" in2="BackgroundImageFix" result="effect1_dropShadow_674_860"/>
<feBlend mode="normal" in="SourceGraphic" in2="effect1_dropShadow_674_860" result="shape"/>
</filter>
<filter id="filter3_d_674_860" x="0.425776" y="17.1926" width="34.3723" height="32.9649" filterUnits="userSpaceOnUse" color-interpolation-filters="sRGB">
<feFlood flood-opacity="0" result="BackgroundImageFix"/>
<feColorMatrix in="SourceAlpha" type="matrix" values="0 0 0 0 0 0 0 0 0 0 0 0 0 0 0 0 0 0 127 0" result="hardAlpha"/>
<feOffset dy="0.6279"/>
<feGaussianBlur stdDeviation="1.8837"/>
<feComposite in2="hardAlpha" operator="out"/>
<feColorMatrix type="matrix" values="0 0 0 0 0 0 0 0 0 0 0 0 0 0 0 0 0 0 0.6 0"/>
<feBlend mode="normal" in2="BackgroundImageFix" result="effect1_dropShadow_674_860"/>
<feBlend mode="normal" in="SourceGraphic" in2="effect1_dropShadow_674_860" result="shape"/>
</filter>
</defs>
</svg>
