<svg width="141" height="56" viewBox="0 0 141 56" fill="none" xmlns="http://www.w3.org/2000/svg">
<path d="M26.0893 26.6659L52.1786 39.8194V36.5131C52.1786 30.5058 48.6988 25.0424 43.2548 22.5025L26.0893 14.494V26.6659Z" fill="url(#paint0_linear_674_90)"/>
<path d="M48.61 45.0617L26.0892 55.3994V43.4237L43.0347 35.151L52.1785 39.4973C52.1785 41.89 50.7846 44.0636 48.61 45.0617Z" fill="url(#paint1_linear_674_90)"/>
<path d="M26.0893 29.0555L0 15.9019L0 19.2083C0 25.2156 3.47982 30.679 8.92374 33.2188L26.0893 41.2274V29.0555Z" fill="url(#paint2_linear_674_90)"/>
<path d="M3.56845 10.3376L26.0893 -5.91278e-05L26.0893 11.9756L9.01852 20.4174L0 15.902C0 13.5092 1.39386 11.3357 3.56845 10.3376Z" fill="url(#paint3_linear_674_90)"/>
<path d="M65.8232 24.6923C64.4824 24.6923 63.2373 24.365 62.088 23.7106C60.9547 23.0402 60.0528 22.1383 59.3824 21.005C58.728 19.8557 58.4007 18.6106 58.4007 17.2698C58.4007 15.9289 58.728 14.6918 59.3824 13.5585C60.0528 12.4252 60.9547 11.5313 62.088 10.8768C63.2373 10.2064 64.4824 9.87122 65.8232 9.87122C67.18 9.87122 68.4251 10.2064 69.5584 10.8768C70.7077 11.5313 71.6016 12.4252 72.2401 13.5585L70.0612 14.8754C69.6143 14.1252 69.0157 13.5426 68.2655 13.1275C67.5312 12.6966 66.7331 12.4811 65.8711 12.4811C65.0091 12.4811 64.211 12.6966 63.4768 13.1275C62.7425 13.5426 62.1599 14.1172 61.7289 14.8515C61.3139 15.5698 61.1063 16.3599 61.1063 17.2219C61.1063 18.0998 61.3218 18.9059 61.7528 19.6402C62.1838 20.3744 62.7584 20.9651 63.4768 21.412C64.211 21.843 65.0091 22.0585 65.8711 22.0585C66.7331 22.0585 67.5312 21.851 68.2655 21.4359C69.0157 21.0209 69.5983 20.4543 70.0133 19.736L72.2401 21.005C71.5697 22.1543 70.6678 23.0561 69.5345 23.7106C68.4171 24.365 67.18 24.6923 65.8232 24.6923ZM82.1441 24.6923C80.8033 24.6923 79.5582 24.365 78.4089 23.7106C77.2756 23.0402 76.3737 22.1383 75.7033 21.005C75.0488 19.8557 74.7216 18.6106 74.7216 17.2698C74.7216 15.9289 75.0488 14.6918 75.7033 13.5585C76.3737 12.4092 77.2756 11.5074 78.4089 10.8529C79.5582 10.1825 80.8033 9.84727 82.1441 9.84727C83.4849 9.84727 84.722 10.1825 85.8554 10.8529C87.0046 11.5233 87.9145 12.4252 88.5849 13.5585C89.2553 14.6918 89.5906 15.9289 89.5906 17.2698C89.5906 18.6106 89.2553 19.8557 88.5849 21.005C87.9145 22.1383 87.0126 23.0402 85.8793 23.7106C84.746 24.365 83.5009 24.6923 82.1441 24.6923ZM82.1441 21.819C82.9742 21.819 83.7324 21.6195 84.4187 21.2205C85.1211 20.8054 85.6798 20.2547 86.0948 19.5684C86.5098 18.866 86.7173 18.0998 86.7173 17.2698C86.7173 16.4557 86.5098 15.6975 86.0948 14.9951C85.6798 14.2928 85.1211 13.7421 84.4187 13.343C83.7324 12.928 82.9742 12.7205 82.1441 12.7205C81.3141 12.7205 80.5479 12.928 79.8455 13.343C79.1591 13.7421 78.6084 14.2928 78.1934 14.9951C77.7944 15.6815 77.5948 16.4397 77.5948 17.2698C77.5948 18.0998 77.7944 18.866 78.1934 19.5684C78.6084 20.2547 79.1591 20.8054 79.8455 21.2205C80.5479 21.6195 81.3141 21.819 82.1441 21.819ZM103.059 5.32194H105.932V20.0712C105.932 20.4862 105.884 20.8453 105.788 21.1486C105.708 21.4519 105.549 21.7392 105.309 22.0106C104.591 22.8406 103.737 23.4951 102.747 23.974C101.758 24.4528 100.712 24.6923 99.6107 24.6923C98.2859 24.6923 97.0488 24.3571 95.8995 23.6866C94.7662 23.0162 93.8643 22.1143 93.1939 20.981C92.5234 19.8317 92.1882 18.5946 92.1882 17.2698C92.1882 15.9449 92.5234 14.7158 93.1939 13.5825C93.8643 12.4332 94.7662 11.5233 95.8995 10.8529C97.0488 10.1825 98.2859 9.84727 99.6107 9.84727C100.84 9.84727 101.989 10.1346 103.059 10.7092V5.32194ZM102.867 20.4303C102.995 20.2867 103.059 20.1031 103.059 19.8796V14.3247C102.612 13.8139 102.085 13.4228 101.478 13.1515C100.888 12.8642 100.265 12.7205 99.6107 12.7205C98.7967 12.7205 98.0384 12.928 97.3361 13.343C96.6497 13.7581 96.099 14.3167 95.684 15.0191C95.269 15.7055 95.0615 16.4557 95.0615 17.2698C95.0615 18.0839 95.269 18.8421 95.684 19.5444C96.099 20.2308 96.6497 20.7815 97.3361 21.1965C98.0384 21.6115 98.7967 21.819 99.6107 21.819C100.265 21.819 100.872 21.6993 101.43 21.4599C102.005 21.2045 102.484 20.8613 102.867 20.4303ZM124.102 17.2937C124.102 17.6449 123.974 17.9482 123.719 18.2036C123.479 18.459 123.176 18.5867 122.809 18.5867L112.25 18.5388C112.537 19.4965 113.096 20.3026 113.926 20.9571C114.756 21.5956 115.674 21.9148 116.679 21.9148C117.398 21.9148 118.084 21.7552 118.738 21.4359C119.393 21.1007 119.936 20.6458 120.367 20.0712L123.144 20.9571C122.458 22.1064 121.548 23.0162 120.414 23.6866C119.281 24.3571 118.044 24.6923 116.703 24.6923C115.362 24.6923 114.117 24.365 112.968 23.7106C111.835 23.0402 110.933 22.1383 110.262 21.005C109.608 19.8557 109.281 18.6106 109.281 17.2698C109.281 15.9289 109.608 14.6918 110.262 13.5585C110.933 12.4252 111.835 11.5313 112.968 10.8768C114.117 10.2064 115.362 9.87122 116.703 9.87122C118.044 9.87122 119.281 10.2064 120.414 10.8768C121.548 11.5313 122.442 12.4332 123.096 13.5825C123.767 14.7158 124.102 15.9529 124.102 17.2937ZM116.703 12.6487C115.634 12.6487 114.668 12.9919 113.806 13.6782C112.96 14.3646 112.417 15.2186 112.178 16.2402L121.205 16.2881C120.965 15.2505 120.422 14.3886 119.576 13.7022C118.73 12.9998 117.773 12.6487 116.703 12.6487ZM127.164 24.4768V21.6036H134.682C135.097 21.6036 135.44 21.4599 135.712 21.1726C135.999 20.8852 136.143 20.5341 136.143 20.1191C136.143 19.72 135.999 19.3848 135.712 19.1134C135.424 18.8261 135.081 18.6824 134.682 18.6824H131.115C130.332 18.6824 129.614 18.4909 128.96 18.1078C128.305 17.7087 127.786 17.182 127.403 16.5275C127.02 15.8731 126.829 15.1548 126.829 14.3726C126.829 13.5904 127.02 12.8721 127.403 12.2177C127.786 11.5632 128.305 11.0445 128.96 10.6614C129.614 10.2783 130.332 10.0867 131.115 10.0867H137.939V12.9599H131.115C130.716 12.9599 130.38 13.0956 130.109 13.367C129.838 13.6383 129.702 13.9735 129.702 14.3726C129.702 14.7717 129.838 15.1149 130.109 15.4022C130.38 15.6735 130.716 15.8092 131.115 15.8092H134.682C135.48 15.8092 136.207 16.0087 136.861 16.4078C137.531 16.7909 138.058 17.3097 138.441 17.9641C138.824 18.6186 139.016 19.3369 139.016 20.1191C139.016 20.9172 138.816 21.6514 138.417 22.3219C138.034 22.9763 137.508 23.5031 136.837 23.9021C136.183 24.2852 135.464 24.4768 134.682 24.4768H127.164Z" fill="#2D5FFF"/>
<path d="M69.2711 30.1763H72.1443V44.9255C72.1443 45.3405 72.0964 45.6997 72.0007 46.0029C71.9208 46.3062 71.7612 46.5936 71.5218 46.8649C70.8035 47.695 69.9495 48.3494 68.9598 48.8283C67.9702 49.3072 66.9246 49.5466 65.8232 49.5466C64.4983 49.5466 63.2613 49.2114 62.112 48.541C60.9786 47.8705 60.0768 46.9687 59.4064 45.8353C58.7359 44.6861 58.4007 43.449 58.4007 42.1241C58.4007 40.7992 58.7359 39.5701 59.4064 38.4368C60.0768 37.2875 60.9786 36.3776 62.112 35.7072C63.2613 35.0368 64.4983 34.7016 65.8232 34.7016C67.0523 34.7016 68.2016 34.9889 69.2711 35.5636V30.1763ZM69.0795 45.2846C69.2072 45.141 69.2711 44.9574 69.2711 44.7339V39.179C68.8241 38.6682 68.2974 38.2772 67.6908 38.0058C67.1002 37.7185 66.4777 37.5748 65.8232 37.5748C65.0091 37.5748 64.2509 37.7823 63.5486 38.1974C62.8622 38.6124 62.3115 39.1711 61.8965 39.8734C61.4815 40.5598 61.2739 41.31 61.2739 42.1241C61.2739 42.9382 61.4815 43.6964 61.8965 44.3987C62.3115 45.0851 62.8622 45.6358 63.5486 46.0508C64.2509 46.4659 65.0091 46.6734 65.8232 46.6734C66.4777 46.6734 67.0842 46.5536 67.6429 46.3142C68.2176 46.0588 68.6964 45.7156 69.0795 45.2846ZM90.3143 42.148C90.3143 42.4992 90.1866 42.8025 89.9312 43.0579C89.6917 43.3133 89.3885 43.441 89.0213 43.441L78.4622 43.3931C78.7496 44.3508 79.3082 45.1569 80.1383 45.8114C80.9683 46.4499 81.8862 46.7691 82.8918 46.7691C83.6101 46.7691 84.2965 46.6095 84.9509 46.2903C85.6054 45.9551 86.1481 45.5001 86.5791 44.9255L89.3565 45.8114C88.6702 46.9607 87.7603 47.8705 86.627 48.541C85.4936 49.2114 84.2566 49.5466 82.9157 49.5466C81.5749 49.5466 80.3298 49.2194 79.1805 48.5649C78.0472 47.8945 77.1453 46.9926 76.4749 45.8593C75.8205 44.71 75.4932 43.4649 75.4932 42.1241C75.4932 40.7833 75.8205 39.5462 76.4749 38.4128C77.1453 37.2795 78.0472 36.3856 79.1805 35.7312C80.3298 35.0608 81.5749 34.7255 82.9157 34.7255C84.2566 34.7255 85.4936 35.0608 86.627 35.7312C87.7603 36.3856 88.6542 37.2875 89.3087 38.4368C89.9791 39.5701 90.3143 40.8072 90.3143 42.148ZM82.9157 37.503C81.8462 37.503 80.8805 37.8462 80.0186 38.5326C79.1726 39.2189 78.6298 40.0729 78.3904 41.0945L87.4171 41.1424C87.1777 40.1049 86.635 39.2429 85.789 38.5565C84.9429 37.8542 83.9852 37.503 82.9157 37.503ZM99.1719 49.5466C98.5653 49.5466 98.0146 49.371 97.5198 49.0198C97.025 48.6527 96.6658 48.1499 96.4423 47.5114L92.0367 34.965H95.1015L98.6691 45.2368C98.701 45.3485 98.7649 45.4363 98.8606 45.5001C98.9564 45.564 99.0602 45.5959 99.1719 45.5959C99.2836 45.5959 99.3874 45.564 99.4832 45.5001C99.5789 45.4363 99.6428 45.3485 99.6747 45.2368L103.242 34.965H106.307L101.878 47.5114C101.654 48.1499 101.295 48.6527 100.8 49.0198C100.305 49.371 99.7625 49.5466 99.1719 49.5466ZM109.51 49.3311V46.4579H117.029C117.444 46.4579 117.787 46.3142 118.058 46.0269C118.345 45.7396 118.489 45.3884 118.489 44.9734C118.489 44.5743 118.345 44.2391 118.058 43.9677C117.771 43.6804 117.428 43.5368 117.029 43.5368H113.461C112.679 43.5368 111.96 43.3452 111.306 42.9621C110.652 42.5631 110.133 42.0363 109.75 41.3818C109.367 40.7274 109.175 40.0091 109.175 39.2269C109.175 38.4448 109.367 37.7265 109.75 37.072C110.133 36.4176 110.652 35.8988 111.306 35.5157C111.96 35.1326 112.679 34.941 113.461 34.941H120.285V37.8143H113.461C113.062 37.8143 112.727 37.9499 112.455 38.2213C112.184 38.4927 112.048 38.8279 112.048 39.2269C112.048 39.626 112.184 39.9692 112.455 40.2565C112.727 40.5279 113.062 40.6635 113.461 40.6635H117.029C117.827 40.6635 118.553 40.8631 119.207 41.2621C119.878 41.6452 120.405 42.164 120.788 42.8185C121.171 43.4729 121.362 44.1912 121.362 44.9734C121.362 45.7715 121.163 46.5058 120.764 47.1762C120.381 47.8306 119.854 48.3574 119.183 48.7565C118.529 49.1396 117.811 49.3311 117.029 49.3311H109.51Z" fill="#2D5FFF"/>
<defs>
<linearGradient id="paint0_linear_674_90" x1="52.1786" y1="35.1974" x2="26.0892" y2="21.3037" gradientUnits="userSpaceOnUse">
<stop stop-color="#2D5FFF"/>
<stop offset="1" stop-color="#2D5FFF" stop-opacity="0.63"/>
<stop offset="1" stop-color="#2D5FFF" stop-opacity="0.7"/>
</linearGradient>
<linearGradient id="paint1_linear_674_90" x1="47.8561" y1="37.4358" x2="26.0892" y2="48.5508" gradientUnits="userSpaceOnUse">
<stop stop-color="#32C276"/>
<stop offset="1" stop-color="#32C276" stop-opacity="0.7"/>
</linearGradient>
<linearGradient id="paint2_linear_674_90" x1="0.0879333" y1="24.57" x2="29.5491" y2="38.0558" gradientUnits="userSpaceOnUse">
<stop stop-color="#2D5FFF"/>
<stop offset="1" stop-color="#2D5FFF" stop-opacity="0.7"/>
</linearGradient>
<linearGradient id="paint3_linear_674_90" x1="2.77875" y1="17.9846" x2="26.0893" y2="4.93993" gradientUnits="userSpaceOnUse">
<stop offset="0.00692335" stop-color="#33CC7B"/>
<stop offset="1" stop-color="#32C276" stop-opacity="0.7"/>
</linearGradient>
</defs>
</svg>
