<svg width="33" height="32" viewBox="0 0 33 32" fill="none" xmlns="http://www.w3.org/2000/svg">
<circle cx="16.3489" cy="16" r="16" fill="#FAFBFF"/>
<path d="M13.3889 25.54C14.3489 25.83 15.3189 26 16.3489 26C19.001 26 21.5446 24.9464 23.4199 23.0711C25.2953 21.1957 26.3489 18.6522 26.3489 16C26.3489 14.6868 26.0902 13.3864 25.5877 12.1732C25.0851 10.9599 24.3485 9.85752 23.4199 8.92893C22.4914 8.00035 21.389 7.26375 20.1757 6.7612C18.9625 6.25866 17.6621 6 16.3489 6C15.0357 6 13.7353 6.25866 12.522 6.7612C11.3088 7.26375 10.2064 8.00035 9.27781 8.92893C7.40245 10.8043 6.34888 13.3478 6.34888 16C6.34888 20.25 9.01888 23.9 12.7889 25.34C12.6989 24.56 12.6089 23.27 12.7889 22.38L13.9389 17.44C13.9389 17.44 13.6489 16.86 13.6489 15.94C13.6489 14.56 14.5089 13.53 15.4889 13.53C16.3489 13.53 16.7489 14.16 16.7489 14.97C16.7489 15.83 16.1789 17.06 15.8889 18.24C15.7189 19.22 16.4089 20.08 17.4089 20.08C19.1889 20.08 20.5689 18.18 20.5689 15.5C20.5689 13.1 18.8489 11.46 16.3789 11.46C13.5589 11.46 11.8989 13.56 11.8989 15.77C11.8989 16.63 12.1789 17.5 12.6389 18.07C12.7289 18.13 12.7289 18.21 12.6989 18.36L12.4089 19.45C12.4089 19.62 12.2989 19.68 12.1289 19.56C10.8489 19 10.1089 17.18 10.1089 15.71C10.1089 12.55 12.3489 9.68 16.6689 9.68C20.1089 9.68 22.7889 12.15 22.7889 15.43C22.7889 18.87 20.6589 21.63 17.6089 21.63C16.6389 21.63 15.6889 21.11 15.3489 20.5L14.6789 22.87C14.4489 23.73 13.8189 24.88 13.3889 25.57V25.54Z" fill="url(#paint0_linear_659_618)"/>
<defs>
<linearGradient id="paint0_linear_659_618" x1="6.41629" y1="19.1547" x2="29.2292" y2="9.01787" gradientUnits="userSpaceOnUse">
<stop stop-color="#0930AE"/>
<stop offset="1" stop-color="#2D5FFF"/>
</linearGradient>
</defs>
</svg>
