<svg width="33" height="32" viewBox="0 0 33 32" fill="none" xmlns="http://www.w3.org/2000/svg">
<circle cx="16.3489" cy="16" r="16" fill="#FAFBFF"/>
<path d="M20.9489 9.82C20.2653 9.03962 19.8886 8.03743 19.8889 7H16.7989V19.4C16.7751 20.071 16.4918 20.7066 16.0087 21.1729C15.5256 21.6393 14.8804 21.8999 14.2089 21.9C12.7889 21.9 11.6089 20.74 11.6089 19.3C11.6089 17.58 13.2689 16.29 14.9789 16.82V13.66C11.5289 13.2 8.50891 15.88 8.50891 19.3C8.50891 22.63 11.2689 25 14.1989 25C17.3389 25 19.8889 22.45 19.8889 19.3V13.01C21.1419 13.9099 22.6463 14.3926 24.1889 14.39V11.3C24.1889 11.3 22.3089 11.39 20.9489 9.82Z" fill="url(#paint0_linear_659_614)"/>
<defs>
<linearGradient id="paint0_linear_659_614" x1="8.56176" y1="18.8392" x2="27.1877" y2="11.6296" gradientUnits="userSpaceOnUse">
<stop stop-color="#0930AE"/>
<stop offset="1" stop-color="#2D5FFF"/>
</linearGradient>
</defs>
</svg>
