<svg width="33" height="32" viewBox="0 0 33 32" fill="none" xmlns="http://www.w3.org/2000/svg">
<circle cx="16.3489" cy="16" r="16" fill="#FAFBFF"/>
<path d="M16.3499 6C21.8729 6 26.3499 10.477 26.3499 16C26.3499 21.523 21.8729 26 16.3499 26C14.5826 26.0029 12.8465 25.5352 11.3199 24.645L6.35387 26L7.70587 21.032C6.81496 19.5049 6.34692 17.768 6.34987 16C6.34987 10.477 10.8269 6 16.3499 6ZM12.9419 11.3L12.7419 11.308C12.6124 11.3159 12.4858 11.3499 12.3699 11.408C12.2614 11.4694 12.1624 11.5462 12.0759 11.636C11.9559 11.749 11.8879 11.847 11.8149 11.942C11.445 12.4229 11.2458 13.0133 11.2489 13.62C11.2509 14.11 11.3789 14.587 11.5789 15.033C11.9879 15.935 12.6609 16.89 13.5489 17.775C13.7629 17.988 13.9729 18.202 14.1989 18.401C15.3023 19.3725 16.6171 20.073 18.0389 20.447L18.6069 20.534C18.7919 20.544 18.9769 20.53 19.1629 20.521C19.4541 20.506 19.7385 20.4271 19.9959 20.29C20.1268 20.2225 20.2546 20.1491 20.3789 20.07C20.3789 20.07 20.4219 20.042 20.5039 19.98C20.6389 19.88 20.7219 19.809 20.8339 19.692C20.9169 19.606 20.9889 19.505 21.0439 19.39C21.1219 19.227 21.1999 18.916 21.2319 18.657C21.2559 18.459 21.2489 18.351 21.2459 18.284C21.2419 18.177 21.1529 18.066 21.0559 18.019L20.4739 17.758C20.4739 17.758 19.6039 17.379 19.0719 17.137C19.0162 17.1127 18.9565 17.0988 18.8959 17.096C18.8274 17.089 18.7583 17.0967 18.6931 17.1186C18.6279 17.1405 18.5682 17.1761 18.5179 17.223C18.5129 17.221 18.4459 17.278 17.7229 18.154C17.6814 18.2098 17.6242 18.2519 17.5587 18.2751C17.4931 18.2982 17.4222 18.3013 17.3549 18.284C17.2897 18.2665 17.2259 18.2445 17.1639 18.218C17.0399 18.166 16.9969 18.146 16.9119 18.11C16.3379 17.8595 15.8066 17.5211 15.3369 17.107C15.2109 16.997 15.0939 16.877 14.9739 16.761C14.5805 16.3842 14.2376 15.958 13.9539 15.493L13.8949 15.398C13.8525 15.3342 13.8182 15.2653 13.7929 15.193C13.7549 15.046 13.8539 14.928 13.8539 14.928C13.8539 14.928 14.0969 14.662 14.2099 14.518C14.3199 14.378 14.4129 14.242 14.4729 14.145C14.5909 13.955 14.6279 13.76 14.5659 13.609C14.2859 12.925 13.9959 12.244 13.6979 11.568C13.6389 11.434 13.4639 11.338 13.3049 11.319C13.2509 11.313 13.1969 11.307 13.1429 11.303C13.0086 11.2963 12.874 11.2977 12.7399 11.307L12.9409 11.299L12.9419 11.3Z" fill="url(#paint0_linear_659_606)"/>
<defs>
<linearGradient id="paint0_linear_659_606" x1="6.41726" y1="19.1547" x2="29.2302" y2="9.01787" gradientUnits="userSpaceOnUse">
<stop stop-color="#0930AE"/>
<stop offset="1" stop-color="#2D5FFF"/>
</linearGradient>
</defs>
</svg>
